<?xml version="1.0" encoding="UTF-8"?>
<svg width="16px" height="16px" viewBox="0 0 16 16" version="1.1" xmlns="http://www.w3.org/2000/svg" xmlns:xlink="http://www.w3.org/1999/xlink">
    <!-- Generator: Sketch 57 (83077) - https://sketch.com -->
    <title>头像-1-图标</title>
    <desc>Created with Sketch.</desc>
    <defs>
        <circle id="path-1" cx="7" cy="7" r="7"></circle>
        <path d="M6.88679487,4.21574011 C7.27208957,3.40127474 7.08355935,1.97691749 6.30727551,1.14715345 C5.53099168,0.317389421 4.56633314,0.00112129257 3.60572656,0.00112129257 C2.39389205,0.00112129257 1.13588113,0.429744748 0.329221481,1.93571271 C-0.0421074949,2.62895371 -0.0956071657,3.25655302 0.243182137,4.21574011 C0.726937716,5.20831486 1.74415782,5.97768506 3.58709139,5.98516379 C5.45911474,5.99266993 6.4137665,5.04766923 6.88679487,4.21574011 Z" id="path-3"></path>
    </defs>
    <g id="操作时间" stroke="none" stroke-width="1" fill="none" fill-rule="evenodd">
        <g id="操作时间右侧" transform="translate(-151.000000, -812.000000)">
            <g id="头像-1-图标" transform="translate(152.000000, 813.000000)">
                <mask id="mask-2" fill="white">
                    <use xlink:href="#path-1"></use>
                </mask>
                <circle stroke="#8693A6" stroke-width="0.5" cx="7" cy="7" r="7.25"></circle>
                <g id="编组-24" mask="url(#mask-2)">
                    <g transform="translate(1.993162, 1.615385)">
                        <g id="编组-28" stroke-width="1" fill="none" fill-rule="evenodd" transform="translate(0.000715, 9.198233)">
                            <path d="M10.2759132,3.75815886 C10.2759132,2.11027924 6.78583624,6.31593543e-16 5.13795661,6.31593543e-16 C3.49007699,6.31593543e-16 2.52637417e-15,2.11027924 2.52637417e-15,3.75815886 C2.52637417e-15,5.40603848 10.2759132,5.40603848 10.2759132,3.75815886 Z" id="椭圆形" fill="#A4B4CD"></path>
                            <path d="M4.75061531,1.70953901 C4.54095062,1.63488059 4.34180386,1.52246312 4.15317505,1.37228661 C3.96454623,1.22211009 3.70751615,0.97134313 3.38208481,0.619985733 L5.30068473,0.46606228 L4.75061531,1.70953901 Z" id="路径" fill="#51688B" fill-rule="nonzero"></path>
                            <path d="M5.53865263,1.70953901 L4.61392309,0.689259814 L6.84312892,0.596494818 C6.57647841,0.888764126 6.36902344,1.09814994 6.22076402,1.22465227 C6.07250459,1.3511546 5.84513413,1.51278352 5.53865263,1.70953901 Z" id="路径" fill="#51688B" fill-rule="nonzero"></path>
                        </g>
                        <path d="M4.99025,10.093913 C6.51648892,10.093913 8.26232771,9.233951 8.9697577,7.68426249 C9.274159,7.02965328 9.29544495,6.41278071 9.29544495,5.92937983 C9.29544495,3.77142131 7.18653094,2.05788353 4.99025,2.15679526 C2.79396907,2.25570699 0.94247671,3.55379646 0.666330502,5.70210586 C0.589887073,6.29680581 0.645374348,7.21771715 1.00720422,7.86344741 C1.75899653,9.37881719 3.5678867,10.093913 4.99025,10.093913 Z" id="椭圆形" fill="#A4B4CD" fill-rule="evenodd"></path>
                        <path d="M8.59269852,8.38376761 C9.02274281,7.51588932 8.52442192,5.83891722 7.74813809,5.00915319 C6.97185425,4.17938916 6.00719572,3.86312103 5.04658913,3.86312103 C3.83475463,3.86312103 2.57674371,4.29174448 1.77008406,5.79771245 C1.39875508,6.49095345 1.19223746,7.43801767 1.3682115,8.1239618 C1.59860438,9.02202969 3.18469239,10.0863799 5.02762596,10.0938137 C6.89964932,10.1013648 8.16265423,9.25164591 8.59269852,8.38376761 Z" id="椭圆形" fill="none"></path>
                        <g id="编组-27" stroke-width="1" fill="none" fill-rule="evenodd" transform="translate(1.440863, 3.862000)">
                            <mask id="mask-4" fill="white">
                                <use xlink:href="#path-3"></use>
                            </mask>
                            <use id="椭圆形备份-7" fill="#FFFFFF" xlink:href="#path-3"></use>
                            <g id="编组-26" mask="url(#mask-4)" fill="#51688B">
                                <g transform="translate(-0.651667, -0.688611)">
                                    <path d="M2.34075511,1.14066276 C2.34075511,1.18968156 3.26215633,2.6676545 4.74026158,2.22109392 C4.65307295,2.11558113 3.98374477,1.84799539 3.98374477,1.34573465 C4.14482543,1.36806102 4.43467139,1.90217406 5.31816738,2.13383914 C5.90716472,2.28828253 6.53168579,2.26878967 7.19173061,2.07536058 C7.42019833,1.80565797 7.5344322,1.67080667 7.5344322,1.67080667 C7.5344322,1.67080667 5.49416537,-7.89491929e-17 5.01634787,-7.89491929e-17 C4.53853038,-7.89491929e-17 2.34075511,1.09164396 2.34075511,1.14066276 Z" id="路径-11"></path>
                                    <path d="M2.4046128,1.15252521 C2.57805006,2.2875509 2.01140525,2.94146957 0.704678362,3.11428122 C-0.602048526,3.28709288 -0.0914195262,2.44763221 2.23656536,0.595899214 L2.4046128,1.15252521 Z" id="路径-12"></path>
                                </g>
                            </g>
                        </g>
                        <path d="M3.57550149,2.27499708 C3.45324705,1.92232912 3.29510148,1.68543051 3.10106476,1.56430127 C3.04656286,1.53487072 2.88165937,1.74290285 2.76378892,1.76280008 C2.64591846,1.7826973 2.36485476,1.75039988 2.22653995,1.40534602 C2.13433008,1.17531012 2.23618544,0.976747554 2.53210603,0.80965833 C2.71697737,0.7399537 2.92545372,0.750459866 3.15753507,0.84117683 C3.5056571,0.977252275 3.59916874,1.43954674 3.63553245,1.74670472 C3.65977493,1.95147671 3.65977493,2.12757416 3.63553245,2.27499708 L3.57550149,2.27499708 Z" id="路径-4" fill="#51688B" fill-rule="evenodd"></path>
                        <path d="M6.03142298,2.15271856 C5.96003293,1.40465989 6.104048,0.774861357 6.46346817,0.263322964 C6.68764809,-0.0548123174 7.19661268,-0.00870373743 7.31267391,0.0213026984 C7.42873513,0.0513091342 7.78251575,0.135726946 7.78251575,0.620619857 C7.78251575,0.943881798 7.6259018,1.12526018 7.31267391,1.16475501 C7.17314374,1.19132221 6.99672691,1.13120941 6.78342341,0.984416603 C6.57011992,0.837623797 6.31945311,1.22705778 6.03142298,2.15271856 Z" id="路径-10" fill="#51688B" fill-rule="evenodd"></path>
                        <path d="M3.50495408,7.66121834 C3.66719013,7.66121834 3.83590548,7.4201409 3.83590548,7.1227568 C3.83590548,6.8253727 3.65364613,6.58429526 3.50495408,6.58429526 C3.35626204,6.58429526 3.19159887,6.8253727 3.19159887,7.1227568 C3.19159887,7.4201409 3.34271804,7.66121834 3.50495408,7.66121834 Z" id="椭圆形" fill="#51688B" fill-rule="evenodd"></path>
                        <path d="M6.49591533,7.66121834 C6.64460738,7.66121834 6.82686673,7.4201409 6.82686673,7.1227568 C6.82686673,6.8253727 6.64460738,6.58429526 6.49591533,6.58429526 C6.34722328,6.58429526 6.18256012,6.8253727 6.18256012,7.1227568 C6.18256012,7.4201409 6.34722328,7.66121834 6.49591533,7.66121834 Z" id="椭圆形备份" fill="#51688B" fill-rule="evenodd"></path>
                    </g>
                </g>
            </g>
        </g>
    </g>
</svg>